<svg xmlns="http://www.w3.org/2000/svg" xmlns:xlink="http://www.w3.org/1999/xlink" aria-hidden="true" role="img" class="iconify iconify--logos" width="31.88" height="32" preserveAspectRatio="xMidYMid meet" viewBox="0 0 256 257"><defs><linearGradient id="IconifyId1813088fe1fbc01fb466" x1="-.828%" x2="57.636%" y1="7.652%" y2="78.411%"><stop offset="0%" stop-color="#41D1FF"></stop><stop offset="100%" stop-color="#BD34FE"></stop></linearGradient><linearGradient id="IconifyId1813088fe1fbc01fb467" x1="43.376%" x2="50.316%" y1="2.242%" y2="89.03%"><stop offset="0%" stop-color="#FFBD4F"></stop><stop offset="100%" stop-color="#FF980E"></stop></linearGradient></defs><path fill="url(#IconifyId1813088fe1fbc01fb466)" d="M255.153 37.938L134.897 252.976c-2.483 4.44-8.862 4.466-11.382.048L.875 37.958c-2.746-4.814 1.371-10.646 6.827-9.67l120.385 21.517a6.537 6.537 0 0 0 2.322-.004l117.867-21.483c5.438-.991 9.574 4.796 6.877 9.62Z"></path><path fill="url(#IconifyId1813088fe1fbc01fb467)" d="M185.432.063L96.44 17.501a3.268 3.268 0 0 0-2.634 3.014l-5.474 92.456a3.268 3.268 0 0 0 3.997 3.378l24.777-5.718c2.318-.535 4.413 1.507 3.936 3.838l-7.361 36.047c-.495 2.426 1.782 4.5 4.151 3.78l15.304-4.649c2.372-.72 4.652 1.36 4.15 3.788l-11.698 56.621c-.732 3.542 3.979 5.473 6.433 2.974l1.795-1.865c2.391-2.482 6.002-1.14 6.433 2.19l.088.565c.385 2.462 2.93 4.024 5.29 3.244l1.55-.52c2.463-.826 5.19.646 5.52 3.244l1.02 8.09c.358 2.84 3.856 4.104 6.09 2.19l47.865-39.15c1.582-1.292 2.237-3.496 1.592-5.485l-9.733-30.655c-.645-1.989.01-4.193 1.592-5.485l28.947-23.63c2.234-1.826 2.234-5.354 0-7.18l-24.18-19.72c-1.582-1.292-2.237-3.496-1.592-5.485l9.733-30.655c.645-1.989-.01-4.193-1.592-5.485l-47.865-39.15c-2.234-1.826-5.762-1.826-7.996 0l-28.947 23.63c-1.582 1.292-4.193 1.592-5.485l-9.733-30.655c-.645-1.989.01-4.193 1.592-5.485l24.18-19.72c2.234-1.826 2.234-5.354 0-7.18l-24.18-19.72c-1.582-1.292-2.237-3.496-1.592-5.485l9.733-30.655c.645-1.989-.01-4.193-1.592-5.485L185.432.063Z"></path></svg>
