<svg xmlns="http://www.w3.org/2000/svg" xmlns:xlink="http://www.w3.org/1999/xlink" aria-hidden="true" role="img" class="iconify iconify--logos" width="35.93" height="32" preserveAspectRatio="xMidYMid meet" viewBox="0 0 256 228"><path fill="#00D8FF" d="M210.483 73.824a171.49 171.49 0 0 0-8.24-2.597c.465-1.9.893-3.777 1.273-5.621c6.238-30.281 2.16-54.676-11.769-62.708c-13.355-7.7-35.196.329-57.254 19.526a171.23 171.23 0 0 0-6.375 5.848a155.866 155.866 0 0 0-4.241-3.917C100.759 3.829 77.587-4.822 63.673 3.233C50.33 10.957 46.379 33.89 51.995 62.588a170.974 170.974 0 0 0 1.892 8.48c-3.28.932-6.445 1.924-9.474 2.98C17.309 83.498 0 98.307 0 113.668c0 15.865 18.582 31.778 46.812 41.427a145.52 145.52 0 0 0 6.921 2.165a167.467 167.467 0 0 0-2.01 9.138c-5.354 28.2-1.173 50.591 12.134 58.266c13.744 7.926 36.812-.22 59.273-19.855a145.567 145.567 0 0 0 5.342-4.923a168.064 168.064 0 0 0 6.92 6.314c21.758 18.722 43.246 26.282 56.54 18.586c13.731-7.949 18.194-32.003 12.4-61.268a145.016 145.016 0 0 0-1.535-6.84c1.92-.43 3.83-.9 5.73-1.41c28.24-9.649 46.82-25.562 46.82-41.427c0-15.365-17.308-30.17-45.39-41.08Zm-9.365 73.077c-1.917.55-3.88 1.07-5.88 1.57a167.598 167.598 0 0 0-8.05-20.35a170.728 170.728 0 0 0 8.38 18.78Zm-1.51-9.7c-4.03-8.79-8.66-17.52-13.79-25.98a323.067 323.067 0 0 0-26.42-36.94c10.44-1.24 20.5-1.9 30.11-1.9c29.66 0 55.68 6.35 71.05 17.51c-9.46 8.97-22.51 17.3-39.02 24.16c-6.52 2.89-13.47 5.64-20.73 8.27a341.5 341.5 0 0 0-21.2-4.13Zm-45.49-8.74c-9.89-17.03-20.46-32.15-31.03-44.9c10.57-12.75 21.14-27.87 31.03-44.9c9.89 17.03 18.6 32.15 26.07 44.9c-7.47 12.75-16.18 27.87-26.07 44.9Zm-51.85 25.06c-6.79-2.46-13.19-5.12-19.19-7.93c-16.51-6.86-29.56-15.19-39.02-24.16c15.37-11.16 41.39-17.51 71.05-17.51c9.61 0 19.67.66 30.11 1.9a323.067 323.067 0 0 0-26.42 36.94c-5.13 8.46-9.76 17.19-13.79 25.98a341.5 341.5 0 0 0-21.76-4.22Zm-8.28 20.78c2.19 5.12 4.63 10.19 7.3 15.17a167.598 167.598 0 0 0-8.05 20.35a170.728 170.728 0 0 0-8.38-18.78a167.598 167.598 0 0 0 9.13-16.74Zm-9.13 35.02a167.598 167.598 0 0 0 8.05 20.35a170.728 170.728 0 0 0-8.38-18.78a167.598 167.598 0 0 0 .33-1.57Zm45.49 8.74c9.89 17.03 20.46 32.15 31.03 44.9c-10.57 12.75-21.14 27.87-31.03 44.9c-9.89-17.03-18.6-32.15-26.07-44.9c7.47-12.75 16.18-27.87 26.07-44.9Zm51.85-25.06c6.79 2.46 13.19 5.12 19.19 7.93c16.51 6.86 29.56 15.19 39.02 24.16c-15.37 11.16-41.39 17.51-71.05 17.51c-9.61 0-19.67-.66-30.11-1.9a323.067 323.067 0 0 0 26.42-36.94c5.13-8.46 9.76-17.19 13.79-25.98a341.5 341.5 0 0 0 21.76 4.22Zm8.28-20.78a167.598 167.598 0 0 0-7.3-15.17a167.598 167.598 0 0 0 8.05-20.35a170.728 170.728 0 0 0 8.38 18.78a167.598 167.598 0 0 0-9.13 16.74Zm9.13-35.02a167.598 167.598 0 0 0-8.05-20.35a170.728 170.728 0 0 0 8.38 18.78a167.598 167.598 0 0 0-.33 1.57Z"></path><path fill="#00D8FF" d="M128 76.38c28.47 0 51.56 23.09 51.56 51.56S156.47 179.5 128 179.5s-51.56-23.09-51.56-51.56S99.53 76.38 128 76.38Z"></path></svg>
